<?xml version="1.0" encoding="UTF-8"?>
<svg width="46px" height="50px" viewBox="0 0 46 50" version="1.1" xmlns="http://www.w3.org/2000/svg" xmlns:xlink="http://www.w3.org/1999/xlink">
    <!-- Generator: Sketch 51 (57462) - http://www.bohemiancoding.com/sketch -->
    <title>logout</title>
    <desc>Created with Sketch.</desc>
    <defs></defs>
    <g id="Page-1" stroke="none" stroke-width="1" fill="none" fill-rule="evenodd">
        <g id="logout" fill="#4550A1" fill-rule="nonzero">
            <g id="Capa_1">
                <g id="Group">
                    <path d="M45.4653077,26.1020408 C45.475382,26.0918367 45.475382,26.0918367 45.4854563,26.0816327 C45.5156792,26.0408163 45.5459021,26.0102041 45.5660507,25.9693878 C45.576125,25.9591837 45.576125,25.9489796 45.5861993,25.9387755 C45.6063479,25.8979592 45.6365708,25.8571429 45.6567194,25.8163265 C45.6567194,25.8061224 45.6667937,25.7959184 45.6667937,25.7959184 C45.6869423,25.755102 45.7070909,25.7142857 45.7272395,25.6632653 C45.7272395,25.6530612 45.7272395,25.6530612 45.7373138,25.6428571 C45.7574624,25.6020408 45.7675367,25.5510204 45.7876853,25.5 C45.7876853,25.4897959 45.7876853,25.4795918 45.7977596,25.4795918 C45.8078339,25.4285714 45.8279825,25.3877551 45.8279825,25.3367347 C45.8279825,25.3163265 45.8279825,25.3061224 45.8380568,25.2857143 C45.8481311,25.244898 45.8481311,25.2040816 45.8582054,25.1632653 C45.8682797,25.1020408 45.8682797,25.0510204 45.8682797,24.9897959 C45.8682797,24.9285714 45.8682797,24.877551 45.8582054,24.8163265 C45.8582054,24.7755102 45.8481311,24.7346939 45.8380568,24.6938776 C45.8380568,24.6734694 45.8380568,24.6632653 45.8279825,24.6428571 C45.8179082,24.5918367 45.8078339,24.5510204 45.7977596,24.5 C45.7977596,24.4897959 45.7977596,24.4795918 45.7876853,24.4795918 C45.777611,24.4285714 45.7574624,24.3877551 45.7373138,24.3367347 C45.7373138,24.3265306 45.7373138,24.3265306 45.7272395,24.3163265 C45.7070909,24.2755102 45.6869423,24.2244898 45.6667937,24.1836735 C45.6667937,24.1734694 45.6567194,24.1632653 45.6567194,24.1632653 C45.6365708,24.122449 45.6164222,24.0816327 45.5861993,24.0408163 C45.576125,24.0306122 45.576125,24.0204082 45.5660507,24.0102041 C45.5358278,23.9693878 45.5156792,23.9285714 45.4854563,23.8979592 L45.4653077,23.877551 C45.4250106,23.8367347 45.3947877,23.7857143 45.3444162,23.744898 L35.3809353,13.6632653 C34.7059573,12.9795918 33.6078588,12.9795918 32.9328808,13.6632653 C32.2579028,14.3469388 32.2579028,15.4591837 32.9328808,16.1428571 L39.9445923,23.244898 L12.0690092,23.244898 C11.1119509,23.244898 10.3362299,24.0306122 10.3362299,24.9897959 C10.3362299,25.9591837 11.1119509,26.744898 12.0690092,26.744898 L39.9546666,26.744898 L32.9933266,33.7959184 C32.3183486,34.4795918 32.3183486,35.5918367 32.9933266,36.2755102 C33.3257784,36.6122449 33.7690475,36.7857143 34.2123167,36.7857143 C34.6555858,36.7857143 35.0988549,36.6122449 35.4313067,36.2755102 L45.3343419,26.244898 C45.3847134,26.1836735 45.4250106,26.1428571 45.4653077,26.1020408 Z" id="Shape"></path>
                    <path d="M9.43961741,3.5 L22.3347191,3.5 C23.2917774,3.5 24.0674984,2.71428571 24.0674984,1.75510204 C24.0674984,0.785714286 23.2917774,0 22.3347191,0 L9.43961741,0 C4.27150243,3.62521804e-16 0.0604457892,4.26530612 0.0604457892,9.5 L0.0604457892,40.4897959 C0.0604457892,45.7244898 4.27150243,49.9897959 9.43961741,49.9897959 L22.1231588,49.9897959 C23.0802172,49.9897959 23.8559381,49.2040816 23.8559381,48.244898 C23.8559381,47.2755102 23.0802172,46.4897959 22.1231588,46.4897959 L9.43961741,46.4897959 C6.17554479,46.4897959 3.51593007,43.7959184 3.51593007,40.4897959 L3.51593007,9.5 C3.52600437,6.18367347 6.17554479,3.5 9.43961741,3.5 Z" id="Shape"></path>
                </g>
            </g>
        </g>
    </g>
</svg>