<?xml version="1.0" encoding="UTF-8"?>
<svg width="54px" height="50px" viewBox="0 0 54 50" version="1.1" xmlns="http://www.w3.org/2000/svg" xmlns:xlink="http://www.w3.org/1999/xlink">
    <!-- Generator: Sketch 51 (57462) - http://www.bohemiancoding.com/sketch -->
    <title>Group 12</title>
    <desc>Created with Sketch.</desc>
    <defs></defs>
    <g id="Page-1" stroke="none" stroke-width="1" fill="none" fill-rule="evenodd">
        <g id="Group-12" fill="#4550A1" fill-rule="nonzero">
            <path d="M51.7494658,0 L1.66933761,0 C0.74619391,0 0,0.746666667 0,1.66666667 L0,48.3333333 C0,49.2533333 0.74619391,50 1.66933761,50 L51.7494658,50 C52.6726095,50 53.4188034,49.2533333 53.4188034,48.3333333 L53.4188034,1.66666667 C53.4188034,0.746666667 52.6726095,0 51.7494658,0 Z M50.0801282,46.6666667 L3.33867521,46.6666667 L3.33867521,13.3333333 L50.0801282,13.3333333 L50.0801282,46.6666667 Z M50.0801282,10 L3.33867521,10 L3.33867521,3.33333333 L50.0801282,3.33333333 L50.0801282,10 Z" id="Shape"></path>
            <rect id="Rectangle-path" x="5.00801282" y="5" width="3.33867521" height="3.33333333"></rect>
            <rect id="Rectangle-path" x="10.0160256" y="5" width="3.33867521" height="3.33333333"></rect>
            <rect id="Rectangle-path" x="45.0721154" y="5" width="3.33867521" height="3.33333333"></rect>
            <path d="M20.0320513,18.3333333 C13.5900775,18.3333333 8.34668803,23.5666667 8.34668803,30 C8.34668803,36.4333333 13.5900775,41.6666667 20.0320513,41.6666667 C26.4740251,41.6666667 31.7174145,36.4333333 31.7174145,30 C31.7174145,23.5666667 26.4740251,18.3333333 20.0320513,18.3333333 Z M20.0320513,38.3333333 C15.4296875,38.3333333 11.6853632,34.595 11.6853632,30 C11.6853632,25.9766667 14.5582933,22.61 18.3627137,21.835 L18.3627137,30 C18.3627137,30.92 19.1089076,31.6666667 20.0320513,31.6666667 L28.2101362,31.6666667 C27.4338942,35.465 24.0618323,38.3333333 20.0320513,38.3333333 Z M21.7013889,28.3333333 L21.7013889,21.835 C24.9666132,22.5 27.5440705,25.0733333 28.2101362,28.3333333 L21.7013889,28.3333333 Z" id="Shape"></path>
            <rect id="Rectangle-path" x="35.0560897" y="18.3333333" width="10.0160256" height="3.33333333"></rect>
            <rect id="Rectangle-path" x="35.0560897" y="25" width="10.0160256" height="3.33333333"></rect>
            <rect id="Rectangle-path" x="35.0560897" y="31.6666667" width="10.0160256" height="3.33333333"></rect>
            <rect id="Rectangle-path" x="35.0560897" y="38.3333333" width="10.0160256" height="3.33333333"></rect>
        </g>
    </g>
</svg>