<?xml version="1.0" encoding="UTF-8"?>
<svg width="50px" height="50px" viewBox="0 0 50 50" version="1.1" xmlns="http://www.w3.org/2000/svg" xmlns:xlink="http://www.w3.org/1999/xlink">
    <!-- Generator: Sketch 51 (57462) - http://www.bohemiancoding.com/sketch -->
    <title>Shape</title>
    <desc>Created with Sketch.</desc>
    <defs></defs>
    <g id="Page-1" stroke="none" stroke-width="1" fill="none" fill-rule="evenodd">
        <path d="M42.6777344,32.3222656 C39.9547852,29.5994141 36.7137695,27.5836914 33.1776367,26.3634766 C36.9649414,23.7549805 39.453125,19.3894531 39.453125,14.453125 C39.453125,6.48369141 32.9694336,0 25,0 C17.0305664,0 10.546875,6.48369141 10.546875,14.453125 C10.546875,19.3894531 13.0350586,23.7549805 16.8224609,26.3634766 C13.2863281,27.5836914 10.0453125,29.5994141 7.32236328,32.3222656 C2.60048828,37.0442383 0,43.3222656 0,50 L3.90625,50 C3.90625,38.3688477 13.3688477,28.90625 25,28.90625 C36.6311523,28.90625 46.09375,38.3688477 46.09375,50 L50,50 C50,43.3222656 47.3995117,37.0442383 42.6777344,32.3222656 Z M25,25 C19.1844727,25 14.453125,20.26875 14.453125,14.453125 C14.453125,8.6375 19.1844727,3.90625 25,3.90625 C30.8155273,3.90625 35.546875,8.6375 35.546875,14.453125 C35.546875,20.26875 30.8155273,25 25,25 Z" id="Shape" fill="#4550A1" fill-rule="nonzero"></path>
    </g>
</svg>