<?xml version="1.0" encoding="UTF-8"?>
<svg width="50px" height="50px" viewBox="0 0 50 50" version="1.1" xmlns="http://www.w3.org/2000/svg" xmlns:xlink="http://www.w3.org/1999/xlink">
    <!-- Generator: Sketch 51 (57462) - http://www.bohemiancoding.com/sketch -->
    <title>Shape</title>
    <desc>Created with Sketch.</desc>
    <defs></defs>
    <g id="Page-1" stroke="none" stroke-width="1" fill="none" fill-rule="evenodd">
        <path d="M40.6900391,0 L9.30976562,0 C4.17636719,0 0,4.17646484 0,9.30996094 L0,40.6900391 C0,45.8235352 4.17636719,50 9.30976562,50 L40.6900391,50 C45.8235352,50 50,45.8235352 50,40.6900391 L50,9.30996094 C50,4.17646484 45.8235352,0 40.6900391,0 Z M23.5351562,10.8789062 C23.5351562,10.0699219 24.190918,9.4140625 25,9.4140625 C25.8088867,9.4140625 26.4648438,10.0699219 26.4648438,10.8789062 L26.4648438,26.7980469 C26.4648438,27.6070312 25.8088867,28.2628906 25,28.2628906 C24.190918,28.2628906 23.5351562,27.6070312 23.5351562,26.7980469 L23.5351562,10.8789062 Z M25,40.5859375 C16.4058594,40.5859375 9.41386719,33.5941406 9.41386719,25 C9.41386719,20.5727539 11.3071289,16.3388672 14.6082031,13.3836914 C15.2110352,12.8442383 16.1371094,12.8953125 16.6767578,13.4980469 C17.2163086,14.1008789 17.1651367,15.0268555 16.5623047,15.5665039 C13.8813477,17.9666016 12.3436523,21.4049805 12.3436523,25.0000977 C12.3436523,31.9788086 18.0212891,37.6563477 25.0000977,37.6563477 C31.9787109,37.6563477 37.6563477,31.9788086 37.6563477,25.0000977 C37.6563477,21.4050781 36.1188477,17.9668945 33.4380859,15.5669922 C32.8352539,15.0274414 32.784082,14.1013672 33.3236328,13.4985352 C33.8631836,12.8957031 34.7893555,12.8446289 35.3921875,13.3841797 C38.6927734,16.3389648 40.5859375,20.5728516 40.5859375,25 C40.5859375,33.5941406 33.594043,40.5859375 25,40.5859375 Z" id="Shape" fill="#4550A1" fill-rule="nonzero"></path>
    </g>
</svg>
