<?xml version="1.0" encoding="UTF-8"?>
<svg width="32px" height="20px" viewBox="0 0 32 20" version="1.1" xmlns="http://www.w3.org/2000/svg" xmlns:xlink="http://www.w3.org/1999/xlink">
    <!-- Generator: Sketch 51 (57462) - http://www.bohemiancoding.com/sketch -->
    <title>Shape</title>
    <desc>Created with Sketch.</desc>
    <defs></defs>
    <g id="Page-1" stroke="none" stroke-width="1" fill="none" fill-rule="evenodd">
        <g id="Desktop-HD" transform="translate(-45.000000, -116.000000)">
            <rect fill="#FFFFFF" x="0" y="0" width="1440" height="1127"></rect>
            <path d="M49.7026753,124.604573 L55.8446481,118.382029 C56.382724,117.837252 56.382724,116.953521 55.8446481,116.408824 C55.3065721,115.863725 54.4342273,115.863725 53.8969469,116.408824 L45.4035569,125.013237 C44.865481,125.558013 44.865481,126.441825 45.4035569,126.986441 L53.8969469,135.591256 C54.1659053,135.863886 54.5183912,136 54.8707975,136 C55.2232038,136 55.5756896,135.863886 55.8446481,135.591256 C56.382724,135.046479 56.382724,134.162748 55.8446481,133.618132 L49.7026753,127.395265 L75.4428144,127.395265 C76.2034711,127.395265 76.8203015,126.770464 76.8203015,125.999879 C76.8203015,125.229294 76.2035507,124.604573 75.4428144,124.604573 L49.7026753,124.604573 Z" id="Shape" fill="#75BA18"></path>
        </g>
    </g>
</svg>